M48
; DRILL file {KiCad (6.0.11)} date Mon May 22 13:49:59 2023
; FORMAT={-:-/ absolute / metric / decimal}
; #@! TF.CreationDate,2023-05-22T13:49:59-03:00
; #@! TF.GenerationSoftware,Kicad,Pcbnew,(6.0.11)
; #@! TF.FileFunction,MixedPlating,1,2
FMAT,2
METRIC
; #@! TA.AperFunction,Plated,PTH,ViaDrill
T1C0.700
; #@! TA.AperFunction,Plated,PTH,ComponentDrill
T2C0.800
; #@! TA.AperFunction,Plated,PTH,ComponentDrill
T3C0.900
; #@! TA.AperFunction,Plated,PTH,ComponentDrill
T4C1.000
; #@! TA.AperFunction,Plated,PTH,ComponentDrill
T5C1.016
; #@! TA.AperFunction,Plated,PTH,ComponentDrill
T6C1.100
; #@! TA.AperFunction,Plated,PTH,ComponentDrill
T7C1.200
; #@! TA.AperFunction,Plated,PTH,ComponentDrill
T8C1.400
; #@! TA.AperFunction,Plated,PTH,ComponentDrill
T9C1.500
; #@! TA.AperFunction,Plated,PTH,ComponentDrill
T10C1.600
; #@! TA.AperFunction,Plated,PTH,ComponentDrill
T11C1.750
; #@! TA.AperFunction,Plated,PTH,ComponentDrill
T12C3.200
; #@! TA.AperFunction,Plated,PTH,ComponentDrill
T13C5.300
%
G90
G05
T1
X104.17Y-99.16
X116.6Y-64.86
X120.15Y-82.09
X136.06Y-77.1
X142.1Y-79.21
X146.39Y-63.155
X146.72Y-59.26
X156.065Y-56.465
X156.225Y-54.095
X161.74Y-73.82
X163.49Y-72.39
T2
X65.38Y-115.32
X65.48Y-131.95
X66.77Y-93.43
X67.98Y-115.32
X68.08Y-131.95
X70.58Y-115.32
X70.68Y-131.95
X71.77Y-93.43
X80.82Y-74.58
X80.82Y-79.58
X80.83Y-67.11
X80.83Y-72.11
X89.63Y-80.57
X89.63Y-90.73
X89.63Y-93.08
X89.63Y-103.24
X89.65Y-68.09
X89.65Y-78.25
X92.68Y-68.1
X92.68Y-78.26
X92.7Y-80.57
X92.7Y-90.73
X92.7Y-93.08
X92.7Y-103.24
X95.14Y-49.02
X95.14Y-54.02
X95.16Y-118.365
X95.16Y-123.365
X98.06Y-118.345
X98.06Y-128.505
X99.28Y-137.065
X100.675Y-132.515
X101.79Y-112.765
X101.79Y-115.305
X101.79Y-117.845
X101.79Y-120.385
X101.79Y-122.925
X101.79Y-125.465
X101.79Y-128.005
X103.13Y-107.445
X103.175Y-132.515
X105.67Y-107.445
X106.38Y-132.535
X108.21Y-107.445
X109.41Y-112.765
X109.41Y-115.305
X109.41Y-117.845
X109.41Y-120.385
X109.41Y-122.925
X109.41Y-125.465
X109.41Y-128.005
X109.44Y-137.065
X111.38Y-132.535
X112.56Y-122.895
X112.56Y-127.895
X113.0Y-45.9
X113.0Y-56.06
X113.34Y-105.22
X113.34Y-115.38
X117.92Y-107.46
X117.92Y-115.08
X117.92Y-118.79
X117.92Y-123.79
X119.98Y-71.71
X119.98Y-79.33
X126.97Y-85.18
X126.97Y-87.78
X126.97Y-90.38
X127.51Y-113.15
X127.51Y-115.75
X127.51Y-118.35
X139.77Y-103.83
X139.77Y-113.99
X139.772Y-116.202
X139.772Y-126.362
X139.78Y-87.49
X139.78Y-97.65
X139.788Y-75.0
X139.788Y-85.16
T3
X97.325Y-69.44
X97.325Y-84.45
X97.325Y-99.44
X99.865Y-69.44
X99.865Y-84.45
X99.865Y-99.44
T4
X125.35Y-48.97
X126.735Y-51.81
X128.12Y-48.97
X129.505Y-51.81
X130.89Y-48.97
X132.275Y-51.81
X133.66Y-48.97
X135.045Y-51.81
X136.43Y-48.97
T5
X84.16Y-52.12
X84.16Y-59.74
X86.7Y-52.12
X89.24Y-52.12
X91.78Y-52.12
X91.78Y-59.74
T6
X68.845Y-72.62
X68.845Y-75.16
X68.845Y-77.7
X131.305Y-85.6
X131.305Y-88.14
X131.305Y-90.68
X131.31Y-114.28
X131.31Y-116.82
X131.31Y-119.36
T7
X153.14Y-83.51
X153.14Y-87.01
X153.14Y-90.51
X153.14Y-94.01
X153.14Y-111.11
X153.14Y-114.61
X153.14Y-118.11
X153.14Y-121.61
T8
X67.972Y-121.48
X67.972Y-126.56
X153.54Y-62.19
X153.54Y-67.27
T9
X108.297Y-70.042
X108.297Y-85.042
X108.297Y-90.042
X108.297Y-95.042
X115.797Y-70.042
X115.797Y-85.042
X115.797Y-90.042
X115.797Y-95.042
T10
X68.8Y-101.92
X68.87Y-108.54
X99.99Y-59.92
X106.47Y-59.86
X134.89Y-136.44
T11
X79.22Y-92.24
X79.22Y-114.24
T12
X66.86Y-47.64
X66.86Y-137.64
X118.39Y-50.39
X143.39Y-50.39
X156.86Y-47.64
X156.86Y-137.64
T13
X103.57Y-48.33
T0
M30
